<?xml version="1.0" standalone="no"?>
<!DOCTYPE svg PUBLIC "-//W3C//DTD SVG 20010904//EN"
 "http://www.w3.org/TR/2001/REC-SVG-20010904/DTD/svg10.dtd">
<svg version="1.0" xmlns="http://www.w3.org/2000/svg"
 width="128.000000pt" height="128.000000pt" viewBox="0 0 128.000000 128.000000"
 preserveAspectRatio="xMidYMid meet">
<metadata>
Created by potrace 1.11, written by Peter Selinger 2001-2013
</metadata>
<g transform="translate(0.000000,128.000000) scale(0.100000,-0.100000)"
fill="#000000" stroke="none">
<path d="M142 953 c3 -24 9 -29 46 -37 l42 -10 0 -263 0 -263 -46 -11 c-40
-10 -45 -14 -42 -38 l3 -26 130 -1 c72 0 136 2 143 4 6 2 12 15 12 28 0 19 -8
25 -40 34 l-40 11 0 103 c0 98 1 105 24 119 22 15 25 14 52 -21 16 -20 60 -74
97 -119 l69 -83 -31 -11 c-24 -9 -31 -17 -31 -38 l0 -27 145 1 145 0 0 26 c0
23 -6 28 -42 38 -36 10 -53 24 -103 88 -33 42 -64 81 -70 87 -51 57 -125 149
-125 157 0 5 46 54 102 109 l102 100 83 0 c99 0 133 -14 157 -64 24 -51 6
-128 -37 -156 -12 -9 -56 -17 -102 -20 l-80 -5 0 -30 c0 -28 2 -30 45 -33 l46
-3 61 -122 c34 -67 63 -133 65 -147 3 -25 3 -25 108 -25 l105 0 3 26 c3 23 -2
28 -40 37 -41 11 -46 16 -114 131 l-71 120 27 9 c44 16 98 70 116 117 20 53
13 104 -22 157 -44 69 -61 73 -320 76 l-231 4 3 -27 c3 -32 1 -30 46 -41 l36
-9 -109 -114 -109 -114 0 115 0 114 38 10 c30 7 38 14 40 37 l3 27 -146 0
-146 0 3 -27z"/>
</g>
</svg>
