<svg width="257" height="272" viewBox="0 0 257 272" fill="none" xmlns="http://www.w3.org/2000/svg">
<rect width="257" height="272" fill="#262626"/>
<g id="Logo GIF Animation">
<path d="M-908 -1056C-908 -1057.1 -907.105 -1058 -906 -1058H12787C12788.1 -1058 12789 -1057.1 12789 -1056V1845C12789 1846.1 12788.1 1847 12787 1847H-906C-907.104 1847 -908 1846.1 -908 1845V-1056Z" fill="white"/>
<path d="M-906 -1058V-1057H12787V-1058V-1059H-906V-1058ZM12789 -1056H12788V1845H12789H12790V-1056H12789ZM12787 1847V1846H-906V1847V1848H12787V1847ZM-908 1845H-907V-1056H-908H-909V1845H-908ZM-906 1847V1846C-906.552 1846 -907 1845.55 -907 1845H-908H-909C-909 1846.66 -907.657 1848 -906 1848V1847ZM12789 1845H12788C12788 1845.55 12787.6 1846 12787 1846V1847V1848C12788.7 1848 12790 1846.66 12790 1845H12789ZM12787 -1058V-1057C12787.6 -1057 12788 -1056.55 12788 -1056H12789H12790C12790 -1057.66 12788.7 -1059 12787 -1059V-1058ZM-906 -1058V-1059C-907.657 -1059 -909 -1057.66 -909 -1056H-908H-907C-907 -1056.55 -906.552 -1057 -906 -1057V-1058Z" fill="white" fill-opacity="0.1"/>
<g id="Ficus-Logo" clip-path="url(#clip0_751_2)">
<path id="Ellipse 5" opacity="0.5" d="M182.446 125.677C155.283 152.84 124.208 209.729 121.636 230.798C121.5 240.501 128.499 240.059 128.499 240.059C128.499 240.059 167.5 238.5 212.828 201.564C248.839 172.22 241.314 126.618 233.659 111.81C226.38 101.646 214.311 93.812 182.446 125.677Z" fill="black"/>
<path id="Ellipse 4" opacity="0.5" d="M202.114 158.192C178.641 209.887 141.529 240.264 128.502 240.058C127.768 239.961 127.098 239.845 126.492 239.682C115.112 236.633 121.159 188.736 136.561 131.253C151.963 73.7713 206.516 62.8834 217.896 65.9327C228.563 69.07 240.388 100.216 202.114 158.192Z" fill="black"/>
<path id="Ellipse 3" opacity="0.5" d="M191.779 76.9692C191.779 138.651 140.557 240.823 128.499 240.06C124.777 240.06 122.05 237.302 118.231 226.324C111.636 207.364 107.167 170.693 107.167 128.499C107.167 66.8178 116.718 16.8149 128.5 16.8149C140.282 16.8149 191.779 15.2875 191.779 76.9692Z" fill="black"/>
<path id="Ellipse 2" opacity="0.5" d="M165.867 119.59C188.857 158.348 139.1 232.954 133.871 236.626C132.962 237.412 131.429 239.792 128.597 240.059C121.946 240.686 92.0631 219.642 75.1034 181.292C52.1137 142.534 60.3314 33.7561 82.7938 26.6033C106.26 16.5643 142.877 80.8319 165.867 119.59Z" fill="black"/>
<path id="Ellipse 1" opacity="0.5" d="M83.3247 125.74C115.189 157.604 142.254 228.229 133.923 236.56C131.33 239.442 130.286 239.797 128.502 240.059C107.796 240.687 71.5288 232.279 46.3056 204.044C12.4238 169.033 13.6787 116.328 21.3334 101.52C29.6645 93.1892 51.4599 93.8748 83.3247 125.74Z" fill="black"/>
</g>
</g>
<defs>
<clipPath id="clip0_751_2">
<rect width="257" height="271.961" fill="white"/>
</clipPath>
</defs>
</svg>
