<svg width="40" height="22" viewBox="0 0 40 22" fill="none" xmlns="http://www.w3.org/2000/svg">
<path d="M34.7404 2.76172C34.7502 2.75514 34.7697 2.74196 34.7795 2.73537V0C31.7092 0.350498 28.959 1.34266 26.8535 2.76303C24.1836 4.56419 22.5391 7.04652 22.5391 9.79659V21.572L40 21.5694V9.798H30.4295C30.4295 7.0455 32.0858 4.56297 34.7401 2.76208L34.7404 2.76172Z" fill="#9D9D9D"/>
<path d="M12.1994 2.76172C12.2092 2.75514 12.2287 2.74196 12.2385 2.73537V0C9.16818 0.350498 6.41799 1.34266 4.31249 2.76303C1.64455 4.56288 0 7.04517 0 9.7976V21.5731H17.455V9.7976H7.88449C7.88449 7.0451 9.53927 4.56262 12.1994 2.76172Z" fill="#9D9D9D"/>
</svg>
