<svg width="120" height="179" viewBox="0 0 120 179" fill="none" xmlns="http://www.w3.org/2000/svg">
<path d="M19.7794 91.4365C25.6877 89.6963 31.5659 87.253 36.5089 83.3134C41.4557 79.3634 45.3854 73.8162 46.4793 67.4185C46.642 66.4611 46.7393 65.4725 46.7394 64.4733C46.7392 62.8098 46.4692 61.1076 45.7567 59.508C45.1748 58.206 44.2924 57.03 43.1762 56.1166C42.0616 55.2059 40.6966 54.5552 39.1808 54.3912C38.9303 54.3641 38.6804 54.351 38.4322 54.351C37.023 54.3518 35.6816 54.7699 34.5122 55.4466C33.3419 56.1254 32.3329 57.0641 31.5688 58.1693L31.5692 58.1687C30.0174 60.4234 29.4908 63.1062 29.4885 65.6463L29.4926 66.031V66.0316C29.4981 66.2884 29.5058 66.5303 29.5057 66.7514C29.5066 67.0865 29.486 67.3727 29.4416 67.5755C29.3965 67.7812 29.3408 67.8902 29.278 67.9701C29.0652 68.247 28.6667 68.4067 28.3129 68.5004C26.8441 68.9128 24.4333 69.37 22.3553 69.7205C20.2712 70.0732 18.4979 70.3279 18.2061 70.3695C17.422 70.4813 16.8773 71.2064 16.9893 71.9891C17.1012 72.7718 17.8276 73.3156 18.6117 73.2038C18.9179 73.1601 20.7117 72.9025 22.8346 72.5432C24.9631 72.1819 27.3988 71.7278 29.088 71.2569L29.0895 71.2564C29.5363 71.1249 30.6582 70.8237 31.5209 69.7547L31.5221 69.7532C31.9235 69.2504 32.1376 68.6863 32.2464 68.1741C32.3557 67.6584 32.3729 67.1806 32.3739 66.7514C32.3738 66.4684 32.365 66.2058 32.3601 65.9709V65.9715L32.3566 65.6463C32.3544 63.4963 32.8212 61.3907 33.9302 59.7942L33.9307 59.7937C34.4497 59.0399 35.1614 58.3792 35.9511 57.9232C36.742 57.4652 37.6002 57.2132 38.4322 57.214C38.5794 57.214 38.7261 57.2218 38.8726 57.2376C39.7543 57.3321 40.6091 57.7197 41.3599 58.3326C42.109 58.9425 42.7378 59.775 43.1362 60.672C43.6491 61.8211 43.8715 63.1168 43.8713 64.4733C43.8714 65.2862 43.7914 66.1177 43.6516 66.9397C42.7204 72.4607 39.2332 77.4792 34.7185 81.0767C30.1999 84.6832 24.6755 87.0125 18.9684 88.6903C16.3507 89.4619 13.481 90.02 10.8137 90.0181C9.15916 90.0186 7.58724 89.8053 6.19079 89.325C4.79216 88.8429 3.56929 88.1066 2.53818 87.0187C0.8072 85.1954 -0.000263696 82.5856 5.69138e-07 79.8433C-0.000169316 78.7029 0.140144 77.5488 0.402201 76.4457C0.643532 75.4299 0.893678 74.4596 1.28976 73.3741L1.28929 73.3753C2.00861 71.4191 3.07664 69.1392 5.67784 65.644C7.72673 62.8991 9.15005 61.5053 10.3709 60.2075C11.59 58.9219 12.6503 57.6366 13.5367 55.5201L13.537 55.5196C14.4628 53.3325 14.7868 51.392 14.9225 50.1882C14.9447 49.9917 14.9258 49.8002 14.8728 49.6219C15.4118 46.3037 15.9909 42.7632 16.6121 38.9752C16.4519 39.0262 16.2834 39.0596 16.1055 39.0504C13.4032 38.9114 10.7141 38.5485 8.07219 37.9659C7.29878 37.7954 6.81037 37.0313 6.98122 36.2594C7.15209 35.4874 7.91751 34.9998 8.69083 35.1704C11.1775 35.7187 13.7093 36.0604 16.2531 36.1912C16.5474 36.2063 16.7996 36.3295 17.0193 36.4931C17.1676 35.5893 17.3181 34.6724 17.471 33.7414C17.2875 33.7671 17.096 33.7582 16.9056 33.7081C14.3273 33.0287 11.7505 32.3493 9.17261 31.6706C8.40683 31.4691 7.94964 30.6859 8.15167 29.9215C8.35359 29.157 9.13811 28.7007 9.90401 28.9023C12.4826 29.581 15.0596 30.2605 17.6377 30.9399C17.7395 30.9667 17.8193 31.0272 17.9093 31.0732C18.2551 28.9677 18.6107 26.8023 18.9789 24.5591C19.5166 21.2851 23.0192 -0.0713275 26.9854 0.0209424C27.9041 0.0426108 29.1239 1.77607 31.5607 5.24437C33.3729 7.82358 34.7061 10.1393 35.6374 11.9042C42.6132 11.8692 49.5889 11.8343 56.5647 11.8001C58.1724 10.1673 60.6274 7.56848 63.4368 4.1344C65.7861 1.26232 66.6733 -0.104867 67.802 0.0062642C70.1828 0.241112 71.3123 6.80239 71.9887 10.5398C71.9887 10.5404 72.3146 12.3407 76.5454 31.6633C76.745 31.4681 76.9845 31.3108 77.2804 31.2588C79.8997 30.7987 82.4687 30.0539 84.9266 29.0409C85.6587 28.7392 86.4972 29.0871 86.7994 29.8179C87.1016 30.5486 86.7532 31.3856 86.0211 31.6873C83.3701 32.7797 80.6019 33.5823 77.7775 34.0785C77.5236 34.123 77.2831 34.0777 77.0567 33.9969C77.1918 34.6132 77.3297 35.2414 77.472 35.8903C77.6251 35.8429 77.784 35.8074 77.9533 35.8146C78.3779 35.8328 78.803 35.8419 79.2281 35.8419C81.2295 35.8419 83.2319 35.6402 85.1932 35.2404C85.9692 35.0823 86.7267 35.5819 86.8852 36.3566C87.0437 37.1311 86.5431 37.8873 85.7671 38.0455C83.6162 38.4839 81.4225 38.7049 79.2281 38.7049C78.85 38.7049 78.472 38.6938 78.0942 38.6806C78.8727 42.1203 79.76 45.4595 80.7054 48.6457C80.5238 48.9961 80.4754 49.4124 80.628 49.8097C83.8303 58.1458 86.5891 62.6627 88.6148 65.2915L88.6146 65.2911C88.9566 65.7355 89.6335 66.5988 90.4379 67.8867C91.2392 69.1707 92.1539 70.8617 92.9269 72.9001L92.927 72.9005C93.3224 73.9425 93.6104 74.9516 93.8775 76.0753V76.075C94.1396 77.178 94.2798 78.3319 94.2796 79.4721C94.2799 82.2148 93.4722 84.8257 91.7416 86.6489C90.7105 87.7369 89.4878 88.4732 88.0895 88.9553C86.6932 89.4355 85.1215 89.6487 83.4672 89.6483C80.7998 89.6501 77.9298 89.0919 75.312 88.3205C69.6042 86.6427 64.0806 84.3135 59.5619 80.7063C55.0473 77.1094 51.5599 72.0909 50.6274 66.5695V66.5698C50.4877 65.7477 50.4077 64.9159 50.4077 64.103C50.4076 62.7462 50.6299 61.4506 51.1428 60.3015C51.5412 59.4048 52.1701 58.5724 52.9194 57.9626C53.6705 57.3498 54.5256 56.9624 55.4066 56.8678C55.5529 56.852 55.6997 56.8442 55.8469 56.8442C56.6789 56.8435 57.5371 57.0954 58.3283 57.5535C59.1182 58.0095 59.8305 58.6704 60.3502 59.4244C61.459 61.0202 61.9248 63.1254 61.9224 65.2756L61.919 65.6011L61.9189 65.6022C61.9143 65.8353 61.9057 66.0958 61.9056 66.3765C61.9066 66.806 61.9235 67.2844 62.033 67.8012C62.1417 68.3143 62.356 68.8796 62.7584 69.3835L62.7589 69.3842C63.6213 70.4539 64.7437 70.7551 65.1916 70.8868L65.1924 70.887C66.8817 71.358 69.3172 71.812 71.4456 72.1731C73.5683 72.5322 75.362 72.7896 75.668 72.8332C76.4521 72.9451 77.1785 72.4013 77.2905 71.6186C77.4025 70.8359 76.8577 70.1108 76.0736 69.999C75.7816 69.9574 74.0087 69.7029 71.9247 69.3503C69.8467 68.9999 67.436 68.5429 65.9672 68.1305C65.6127 68.0368 65.2143 67.8767 65.0027 67.6006C64.9392 67.52 64.8833 67.4103 64.838 67.2035C64.7934 66.9999 64.7729 66.7128 64.7738 66.3765C64.7737 66.1565 64.7812 65.916 64.7865 65.6607L64.7865 65.6617C64.7892 65.5333 64.7906 65.4045 64.7906 65.2756C64.7883 62.7363 64.2631 60.0536 62.7112 57.7989C61.9467 56.694 60.9374 55.7554 59.7669 55.0768C58.5975 54.4001 57.2561 53.982 55.8469 53.9812C55.5987 53.9812 55.3488 53.9943 55.0983 54.0214C53.583 54.1855 52.2184 54.8359 51.1037 55.7463C49.9873 56.6594 49.1043 57.8352 48.5224 59.1375C47.8099 60.737 47.5398 62.4392 47.5397 64.103C47.5398 65.1023 47.637 66.091 47.7997 67.0486V67.0489C48.8952 73.4465 52.8247 78.9935 57.7715 82.9428C62.7145 86.8831 68.5921 89.3265 74.5013 91.0667C77.301 91.8885 80.4064 92.5094 83.4672 92.5112C85.3644 92.5107 87.2492 92.2708 89.0226 91.6624C90.7938 91.0559 92.454 90.0681 93.8271 88.6142C93.8342 88.6067 93.8397 88.5983 93.8468 88.5908C100.128 93.1899 105.159 97.4534 108.897 100.835L108.897 100.836C111.979 103.622 114.284 105.904 115.913 108.045C117.543 110.191 118.511 112.166 119.022 114.506C119.261 115.608 119.346 116.568 119.346 117.383C119.343 119.153 118.958 120.223 118.805 120.635C117.462 124.235 113.914 126.057 113.161 126.413C110.934 127.525 107.618 128.175 103.758 128.891L103.757 128.891C99.069 129.768 96.2535 130.262 94.212 130.663C92.1755 131.062 90.8758 131.379 89.3534 131.881L89.3532 131.881C88.4698 132.171 87.1175 132.651 85.4972 133.383C84.9568 133.627 84.6237 134.176 84.6568 134.767C84.66 134.826 84.6652 134.933 84.6653 135.088C84.6662 135.535 84.617 136.361 84.3489 137.238C84.0795 138.119 83.6093 139.031 82.7747 139.774C81.7319 140.702 80.4261 141.102 79.0442 141.105C77.6119 141.11 76.137 140.641 75.1021 139.955C73.9056 139.166 73.1997 138.093 72.7563 136.879C72.3174 135.672 72.1824 134.345 72.1839 133.261C72.1838 132.163 72.3158 131.325 72.3558 131.092C72.5458 129.983 72.8861 129.094 73.3836 128.169C73.8804 127.247 74.5479 126.295 75.3507 125.16C77.9232 121.515 80.7901 119.649 81.3351 119.303L81.3356 119.303C83.5867 117.868 85.7053 117.149 87.1726 116.77C87.9394 116.572 88.4001 115.791 88.2016 115.026C88.0032 114.26 87.2208 113.8 86.454 113.998C84.783 114.43 82.3655 115.249 79.7922 116.89L79.7923 116.89L79.7919 116.89C79.792 116.89 79.7921 116.89 79.7922 116.89C79.0946 117.335 75.8852 119.431 73.0061 123.511C72.2065 124.644 71.4718 125.678 70.8589 126.81C70.2467 127.94 69.7699 129.175 69.5279 130.613C69.4728 130.939 69.3159 131.94 69.3158 133.261C69.3159 133.305 69.3198 133.356 69.3203 133.401C66.9837 134.256 64.7201 134.919 62.6328 135.456C65.04 145.598 72.5517 154.002 84.0936 156.544C93.2744 158.567 102.403 154.179 109.143 147.694C111.508 145.419 114.705 139.759 118.405 142.123C121.316 143.982 119.571 148.019 118.427 150.589C110.149 169.186 87.0367 172.676 71.9823 162.933C61.5997 156.213 55.4887 147.676 53.1374 137.554C50.3025 138.107 47.3003 138.578 44.2061 138.697C41.9688 148.787 42.2041 156.519 43.1593 162.27C43.7321 165.712 45.309 172.963 41.4759 176.638C37.9579 180.01 31.4766 178.846 30.324 178.639C27.7891 178.183 24.372 177.379 22.7908 174.505C21.347 171.881 22.0976 168.069 24.7599 166.69C25.8985 166.1 27.3732 165.88 28.0076 164.767C28.5664 163.785 28.2919 162.652 28.156 162.118C21.4772 135.968 18.1245 127.246 18.1245 127.244C17.3542 125.479 16.5994 123.618 15.8767 121.664C15.4575 120.531 15.0689 119.414 14.7026 118.312C13.2048 114.826 12.1023 111.371 11.1753 108.376C9.65242 103.455 8.90219 99.3802 9.11753 92.8043C9.68043 92.8508 10.2458 92.8808 10.8136 92.8809C13.8743 92.8793 16.9796 92.2586 19.7794 91.4365ZM39.2005 27.6963C38.6751 27.1048 37.7687 27.0503 37.1761 27.5749C35.6746 28.9067 33.7001 29.7439 31.6987 29.8972L31.6982 29.8973C31.5065 29.9123 31.3186 29.9206 31.1372 29.9206C30.5886 29.9212 30.1099 29.843 29.7291 29.6794C29.493 29.5798 29.2681 29.4232 29.1117 29.2544C28.9529 29.0842 28.8653 28.9138 28.8315 28.762C28.6583 27.9905 27.8912 27.5054 27.1184 27.6784C26.3456 27.8513 25.8595 28.6168 26.0328 29.3883C26.1951 30.1095 26.5619 30.7237 27.0148 31.2077C27.47 31.6932 28.014 32.0605 28.6028 32.3125C29.4604 32.6767 30.3322 32.7829 31.1372 32.7836C31.4053 32.7835 31.6673 32.7715 31.9219 32.7516H31.9214C34.5611 32.5443 37.0961 31.4692 39.079 29.7171C39.6715 29.1926 39.726 28.2879 39.2005 27.6963ZM55.0417 29.9541C56.5223 31.9782 58.8432 33.2857 61.3441 33.5056C61.5831 33.5261 61.8222 33.5361 62.0609 33.5361C64.3182 33.5319 66.5275 32.6531 68.1588 31.0747C68.7263 30.5233 68.7386 29.617 68.1862 29.0504C67.6339 28.4838 66.726 28.4715 66.1584 29.0229C65.0955 30.0617 63.5579 30.6772 62.0609 30.6731C61.9028 30.6731 61.7452 30.6664 61.5886 30.653C59.9483 30.5193 58.324 29.604 57.3623 28.2716C56.8968 27.6319 56 27.4901 55.3592 27.9547C54.7183 28.4194 54.5762 29.3145 55.0417 29.9541ZM47.5926 40.4623C48.2559 40.8722 48.9996 41.0656 49.7455 41.0674C50.7676 41.0685 51.8758 40.6841 52.6294 39.7429C53.1209 39.1229 53.0158 38.2226 52.3947 37.732C51.7737 37.2414 50.8718 37.3462 50.3802 37.9662C50.2974 38.08 50.0765 38.2032 49.7455 38.2044C49.5155 38.2062 49.2711 38.1356 49.1093 38.0324C48.8635 37.8798 48.6427 37.6396 48.4654 37.3111C48.289 36.9855 48.1673 36.5783 48.1242 36.1724C48.047 35.4595 47.4524 34.9132 46.7342 34.8953C46.016 34.8774 45.3949 35.3934 45.2821 36.1017C45.217 36.5156 45.0791 36.9236 44.8919 37.2497C44.7039 37.5785 44.4766 37.8195 44.2254 37.974L44.2247 37.9745C44.0539 38.0825 43.7991 38.1553 43.5636 38.1534C43.2374 38.1522 43.0197 38.0354 42.9318 37.9228C42.4236 37.3164 41.5191 37.236 40.9116 37.7433C40.3042 38.2506 40.2236 39.1534 40.7318 39.7598C41.4882 40.6547 42.5676 41.0176 43.5636 41.0164C44.3169 41.0145 45.065 40.8189 45.732 40.4101C45.7319 40.4101 45.732 40.4102 45.7319 40.4102L45.7326 40.4099C45.7325 40.41 45.7322 40.4101 45.732 40.4101C46.0775 40.197 46.3752 39.9396 46.6399 39.661C46.9122 39.9617 47.2277 40.2353 47.5926 40.4623Z" fill="#F2C94C"/>
</svg>
