<?xml version="1.0" standalone="no"?>
<!DOCTYPE svg PUBLIC "-//W3C//DTD SVG 20010904//EN"
 "http://www.w3.org/TR/2001/REC-SVG-20010904/DTD/svg10.dtd">
<svg version="1.0" xmlns="http://www.w3.org/2000/svg"
 width="140.000000pt" height="140.000000pt" viewBox="0 0 140.000000 140.000000"
 preserveAspectRatio="xMidYMid meet">
<metadata>
Created by potrace 1.11, written by Peter Selinger 2001-2013
</metadata>
<g transform="translate(0.000000,140.000000) scale(0.100000,-0.100000)"
fill="#000000" stroke="none">
<path d="M2 1136 c3 -39 3 -40 63 -54 l60 -14 -1 -364 c0 -200 -3 -366 -6
-370 -4 -3 -30 -11 -60 -18 -52 -11 -53 -12 -56 -49 -2 -20 0 -37 5 -38 48 -5
372 -3 383 3 13 5 18 37 11 69 0 3 -25 11 -54 18 l-53 11 1 144 0 144 30 26
c31 27 45 32 45 17 0 -5 6 -16 13 -23 26 -27 242 -300 242 -306 0 -3 -13 -9
-28 -13 -38 -10 -56 -26 -52 -47 2 -9 4 -24 4 -32 1 -13 30 -15 200 -15 l199
0 4 33 c2 18 2 36 -1 40 -4 5 -32 14 -63 21 -32 7 -58 16 -58 20 0 4 -8 16
-17 27 -29 32 -76 87 -113 134 -19 24 -79 97 -133 162 -54 65 -95 122 -92 128
15 24 277 275 294 282 31 11 235 2 262 -12 82 -43 108 -151 57 -242 -35 -61
-80 -79 -200 -81 l-99 -1 3 -45 3 -46 40 -2 c22 -1 50 -2 62 -2 19 -1 37 -29
108 -171 58 -116 85 -181 85 -205 0 -21 5 -35 13 -36 6 0 76 -2 155 -2 l143
-2 -3 39 c-3 42 1 40 -89 60 -21 5 -44 36 -118 160 -50 85 -95 158 -101 161
-19 12 -10 22 33 39 64 24 122 79 153 143 22 48 26 66 21 115 -9 103 -71 181
-168 213 -43 15 -93 17 -322 17 -150 0 -284 -1 -298 -1 -24 -1 -27 -5 -27 -35
0 -34 2 -35 59 -53 l59 -18 -148 -153 c-81 -83 -149 -152 -152 -152 -3 0 -6
70 -6 154 l0 155 56 13 c55 14 55 14 55 52 l0 39 -203 1 -203 1 3 -39z"/>
</g>
</svg>
